<svg width="201" height="201" viewBox="0 0 201 201" fill="none" xmlns="http://www.w3.org/2000/svg">
<path d="M100.33 0C44.92 0 0 44.92 0 100.3C0 155.71 44.92 200.63 100.33 200.63C155.7 200.63 200.63 155.71 200.63 100.3C200.62 44.92 155.7 0 100.33 0ZM100.33 159.93C67.38 159.93 40.7 133.25 40.7 100.3C40.7 67.39 67.38 40.67 100.33 40.67C133.24 40.67 159.96 67.39 159.96 100.3C159.96 133.24 133.24 159.93 100.33 159.93Z" fill="#A3E2F9"/>
<path d="M100.33 17.5098C54.5798 17.5098 17.5098 54.5797 17.5098 100.3C17.5098 146.05 54.5798 183.12 100.33 183.12C146.05 183.12 183.12 146.05 183.12 100.3C183.11 54.5797 146.04 17.5098 100.33 17.5098ZM100.33 159.93C67.3798 159.93 40.6998 133.25 40.6998 100.3C40.6998 67.3897 67.3798 40.6698 100.33 40.6698C133.24 40.6698 159.96 67.3897 159.96 100.3C159.96 133.24 133.24 159.93 100.33 159.93Z" fill="#66CEF5"/>
<path d="M100.33 27.6201C60.1501 27.6201 27.6201 60.1501 27.6201 100.3C27.6201 140.45 60.1501 173.01 100.33 173.01C140.48 173.01 173.01 140.44 173.01 100.3C173.01 60.1501 140.47 27.6201 100.33 27.6201ZM100.33 159.93C67.3801 159.93 40.7001 133.25 40.7001 100.3C40.7001 67.3901 67.3801 40.6701 100.33 40.6701C133.24 40.6701 159.96 67.3901 159.96 100.3C159.96 133.24 133.24 159.93 100.33 159.93Z" fill="#339BC2"/>
</svg>
