    <svg width="100%" height="100%" viewBox="0 0 1030 207" fill="none" xmlns="http://www.w3.org/2000/svg">
  <path d="M929.01 5.43018C873.6 5.43018 828.68 50.3502 828.68 105.73C828.68 161.14 873.6 206.06 929.01 206.06C984.38 206.06 1029.31 161.14 1029.31 105.73C1029.3 50.3502 984.38 5.43018 929.01 5.43018ZM929.01 165.36C896.06 165.36 869.38 138.68 869.38 105.73C869.38 72.8202 896.06 46.1002 929.01 46.1002C961.92 46.1002 988.64 72.8202 988.64 105.73C988.64 138.67 961.92 165.36 929.01 165.36Z" fill="#A3E2F9" />
  <path d="M929.01 22.9404C883.26 22.9404 846.19 60.0104 846.19 105.73C846.19 151.48 883.26 188.55 929.01 188.55C974.73 188.55 1011.8 151.48 1011.8 105.73C1011.79 60.0104 974.72 22.9404 929.01 22.9404ZM929.01 165.36C896.06 165.36 869.38 138.68 869.38 105.73C869.38 72.8204 896.06 46.1004 929.01 46.1004C961.92 46.1004 988.64 72.8204 988.64 105.73C988.64 138.67 961.92 165.36 929.01 165.36Z" fill="#66CEF5" />
  <path d="M929.01 33.0503C888.83 33.0503 856.3 65.5803 856.3 105.73C856.3 145.88 888.83 178.44 929.01 178.44C969.16 178.44 1001.69 145.87 1001.69 105.73C1001.69 65.5803 969.15 33.0503 929.01 33.0503ZM929.01 165.36C896.06 165.36 869.38 138.68 869.38 105.73C869.38 72.8203 896.06 46.1003 929.01 46.1003C961.92 46.1003 988.64 72.8203 988.64 105.73C988.64 138.67 961.92 165.36 929.01 165.36Z" fill="#339BC2" />
  <path d="M123.23 0.970215V164.05H108.3V143.83C101.95 151.55 94.8402 157.35 86.9402 161.24C79.0502 165.13 70.4102 167.08 61.0402 167.08C44.3902 167.08 30.1602 161.04 18.3802 148.96C6.5902 136.9 0.700195 122.21 0.700195 104.9C0.700195 87.9602 6.6502 73.4702 18.5402 61.4302C30.4402 49.3902 44.7502 43.3702 61.4702 43.3702C71.1302 43.3702 79.8702 45.4302 87.7002 49.5302C95.5202 53.6402 102.39 59.8002 108.3 68.0202V0.970215H123.23ZM62.7202 57.9702C54.2902 57.9702 46.5202 60.0402 39.3902 64.1802C32.2602 68.3202 26.5902 74.1402 22.3702 81.6302C18.1602 89.1202 16.0502 97.0402 16.0502 105.39C16.0502 113.67 18.1802 121.6 22.4202 129.16C26.6602 136.72 32.3802 142.61 39.5402 146.82C46.7002 151.03 54.3902 153.14 62.6002 153.14C70.8802 153.14 78.7302 151.05 86.1502 146.87C93.5702 142.69 99.2702 137.04 103.27 129.91C107.27 122.78 109.26 114.75 109.26 105.82C109.26 92.2102 104.78 80.8302 95.8102 71.6802C86.8602 62.5402 75.8202 57.9702 62.7202 57.9702Z" fill="#231F20" />
  <path d="M257.58 46.4001V164.06H242.66V143.84C236.31 151.56 229.2 157.36 221.3 161.25C213.41 165.14 204.77 167.09 195.4 167.09C178.74 167.09 164.52 161.05 152.73 148.97C140.94 136.89 135.05 122.2 135.05 104.9C135.05 87.9601 141 73.4701 152.89 61.4301C164.79 49.3901 179.1 43.3701 195.83 43.3701C205.49 43.3701 214.23 45.4302 222.05 49.5302C229.87 53.6402 236.74 59.8001 242.65 68.0201V46.4001H257.58ZM197.07 57.9701C188.64 57.9701 180.87 60.0401 173.74 64.1801C166.61 68.3201 160.94 74.1401 156.72 81.6301C152.51 89.1201 150.4 97.0401 150.4 105.39C150.4 113.67 152.52 121.6 156.77 129.16C161.02 136.72 166.73 142.61 173.89 146.82C181.06 151.03 188.74 153.14 196.96 153.14C205.24 153.14 213.09 151.05 220.51 146.87C227.93 142.69 233.64 137.04 237.63 129.91C241.63 122.78 243.63 114.75 243.63 105.82C243.63 92.2101 239.15 80.8301 230.18 71.6801C221.21 62.5401 210.18 57.9701 197.07 57.9701Z" fill="#231F20" />
  <path d="M291.27 2.7002H306.41V46.3902H330.42V59.4802H306.41V164.06H291.27V59.4802H270.61V46.4002H291.27V2.7002Z" fill="#231F20" />
  <path d="M456.8 46.4001V164.06H441.88V143.84C435.53 151.56 428.42 157.36 420.52 161.25C412.63 165.14 403.99 167.09 394.62 167.09C377.96 167.09 363.74 161.05 351.95 148.97C340.16 136.89 334.27 122.2 334.27 104.9C334.27 87.9601 340.22 73.4701 352.11 61.4301C364.01 49.3901 378.32 43.3701 395.05 43.3701C404.71 43.3701 413.45 45.4302 421.27 49.5302C429.09 53.6402 435.96 59.8001 441.87 68.0201V46.4001H456.8ZM396.29 57.9701C387.86 57.9701 380.09 60.0401 372.96 64.1801C365.83 68.3201 360.16 74.1401 355.94 81.6301C351.73 89.1201 349.62 97.0401 349.62 105.39C349.62 113.67 351.74 121.6 355.99 129.16C360.24 136.72 365.95 142.61 373.11 146.82C380.28 151.03 387.96 153.14 396.18 153.14C404.46 153.14 412.31 151.05 419.73 146.87C427.15 142.69 432.86 137.04 436.85 129.91C440.85 122.78 442.85 114.75 442.85 105.82C442.85 92.2101 438.37 80.8301 429.4 71.6801C420.43 62.5401 409.4 57.9701 396.29 57.9701Z" fill="#231F20" />
  <path d="M579.96 125.02L592.72 131.73C588.53 139.95 583.7 146.58 578.21 151.63C572.73 156.68 566.56 160.52 559.7 163.15C552.84 165.78 545.08 167.1 536.43 167.1C517.23 167.1 502.22 160.81 491.4 148.23C480.58 135.65 475.16 121.43 475.16 105.57C475.16 90.6504 479.74 77.3403 488.91 65.6603C500.53 50.8103 516.08 43.3804 535.56 43.3804C555.62 43.3804 571.64 50.9904 583.62 66.2004C592.13 76.9404 596.46 90.3504 596.61 106.43H490.74C491.03 120.1 495.4 131.3 503.84 140.04C512.28 148.78 522.72 153.15 535.13 153.15C541.12 153.15 546.95 152.11 552.62 150.03C558.28 147.95 563.1 145.18 567.07 141.73C571.05 138.27 575.34 132.7 579.96 125.02ZM579.96 93.3304C577.94 85.2604 575 78.8003 571.13 73.9703C567.27 69.1403 562.16 65.2503 555.81 62.2903C549.45 59.3303 542.78 57.8604 535.78 57.8604C524.23 57.8604 514.3 61.5704 506 69.0004C499.94 74.4104 495.35 82.5204 492.25 93.3304H579.96Z" fill="#0082B3" />
  <path d="M729.08 70.8404L717.07 78.3004C706.7 64.5304 692.55 57.6404 674.62 57.6404C660.29 57.6404 648.39 62.2503 638.92 71.4703C629.45 80.6903 624.72 91.8904 624.72 105.06C624.72 113.63 626.9 121.7 631.25 129.26C635.61 136.82 641.58 142.69 649.18 146.87C656.78 151.05 665.29 153.14 674.73 153.14C692.01 153.14 706.13 146.26 717.07 132.48L729.08 140.37C723.46 148.84 715.9 155.41 706.42 160.08C696.94 164.75 686.14 167.08 674.03 167.08C655.43 167.08 640 161.17 627.74 149.34C615.48 137.52 609.35 123.13 609.35 106.19C609.35 94.8004 612.22 84.2204 617.95 74.4504C623.68 64.6804 631.56 57.0604 641.58 51.5804C651.6 46.1004 662.81 43.3604 675.21 43.3604C683 43.3604 690.51 44.5504 697.76 46.9304C705 49.3104 711.15 52.4103 716.2 56.2303C721.25 60.0603 725.54 64.9204 729.08 70.8404Z" fill="#0082B3" />
  <path d="M748.2 0.970215H763.34V67.4802C769.47 59.4102 776.21 53.3702 783.56 49.3602C790.91 45.3602 798.88 43.3602 807.46 43.3602C816.25 43.3602 824.06 45.6002 830.87 50.0702C837.68 54.5402 842.71 60.5402 845.96 68.0802C849.21 75.6202 850.83 87.4202 850.83 103.5V164.06H835.69V107.93C835.69 94.3802 835.15 85.3302 834.07 80.7902C832.19 73.0002 828.79 67.1502 823.85 63.2202C818.91 59.2902 812.44 57.3302 804.44 57.3302C795.28 57.3302 787.08 60.3602 779.84 66.4102C772.6 72.4702 767.82 79.9702 765.51 88.9002C764.07 94.6702 763.35 105.34 763.35 120.91V164.06H748.2V0.970215Z" fill="#0082B3" />
  <path d="M929 43.3701C947.13 43.3701 962.15 49.9301 974.07 63.0501C984.9 75.0201 990.32 89.1901 990.32 105.55C990.32 121.99 984.6 136.35 973.15 148.65C961.7 160.94 946.99 167.09 929 167.09C910.94 167.09 896.19 160.94 884.75 148.65C873.3 136.36 867.58 121.99 867.58 105.55C867.58 89.2601 873 75.1201 883.83 63.1601C895.75 49.9601 910.8 43.3701 929 43.3701ZM928.95 58.1801C916.36 58.1801 905.54 62.8301 896.5 72.1301C887.45 81.4301 882.93 92.6801 882.93 105.87C882.93 114.38 884.99 122.31 889.12 129.66C893.24 137.01 898.81 142.69 905.83 146.69C912.85 150.69 920.55 152.69 928.95 152.69C937.34 152.69 945.04 150.69 952.06 146.69C959.08 142.69 964.65 137.01 968.77 129.66C972.89 122.31 974.96 114.38 974.96 105.87C974.96 92.6801 970.42 81.4301 961.34 72.1301C952.27 62.8301 941.47 58.1801 928.95 58.1801Z" fill="#0082B3" />
</svg>