<svg width="1036" height="208" viewBox="0 0 1036 208" fill="none" xmlns="http://www.w3.org/2000/svg">
<path opacity="0.5" d="M934.28 5.37012C878.57 5.37012 833.4 50.5401 833.4 106.22C833.4 161.93 878.57 207.1 934.28 207.1C989.96 207.1 1035.13 161.93 1035.13 106.22C1035.13 50.5401 989.96 5.37012 934.28 5.37012ZM934.28 166.18C901.15 166.18 874.32 139.35 874.32 106.22C874.32 73.1301 901.15 46.2601 934.28 46.2601C967.37 46.2601 994.24 73.1201 994.24 106.22C994.24 139.35 967.37 166.18 934.28 166.18Z" fill="white"/>
<path d="M934.281 22.98C888.281 22.98 851.011 60.2499 851.011 106.22C851.011 152.22 888.281 189.49 934.281 189.49C980.251 189.49 1017.52 152.22 1017.52 106.22C1017.52 60.2499 980.251 22.98 934.281 22.98ZM934.281 166.18C901.151 166.18 874.321 139.35 874.321 106.22C874.321 73.1299 901.151 46.26 934.281 46.26C967.371 46.26 994.241 73.1199 994.241 106.22C994.241 139.35 967.371 166.18 934.281 166.18Z" fill="#E6E7E8"/>
<path d="M934.28 33.1401C893.88 33.1401 861.17 65.8501 861.17 106.22C861.17 146.59 893.88 179.33 934.28 179.33C974.65 179.33 1007.36 146.58 1007.36 106.22C1007.36 65.8601 974.65 33.1401 934.28 33.1401ZM934.28 166.18C901.15 166.18 874.32 139.35 874.32 106.22C874.32 73.1301 901.15 46.2601 934.28 46.2601C967.37 46.2601 994.24 73.1201 994.24 106.22C994.24 139.35 967.37 166.18 934.28 166.18Z" fill="#D0D2D3"/>
<path d="M124.08 0.890137V164.87H109.07V144.54C102.69 152.3 95.5301 158.13 87.5901 162.05C79.6501 165.97 70.9701 167.92 61.5501 167.92C44.8101 167.92 30.5001 161.85 18.6501 149.71C6.80012 137.57 0.870117 122.8 0.870117 105.4C0.870117 88.3701 6.85012 73.7901 18.8101 61.6901C30.7701 49.5901 45.1601 43.5301 61.9801 43.5301C71.6901 43.5301 80.4801 45.6001 88.3501 49.7301C96.2101 53.8601 103.12 60.0601 109.06 68.3301V0.910126H124.08V0.890137ZM63.2401 58.2001C54.7701 58.2001 46.9501 60.2801 39.7801 64.4501C32.6101 68.6201 26.9101 74.4601 22.6701 81.9901C18.4301 89.5201 16.3201 97.4901 16.3201 105.88C16.3201 114.21 18.4601 122.17 22.7301 129.78C27.0001 137.38 32.7401 143.3 39.9401 147.54C47.1401 151.78 54.8701 153.89 63.1301 153.89C71.4601 153.89 79.3501 151.79 86.8101 147.59C94.2701 143.39 100 137.71 104.02 130.54C108.04 123.37 110.05 115.3 110.05 106.32C110.05 92.6301 105.55 81.1901 96.5301 72.0001C87.5101 62.8001 76.4101 58.2001 63.2401 58.2001Z" fill="white"/>
<path d="M259.16 46.5603V164.87H244.15V144.54C237.77 152.3 230.61 158.13 222.67 162.05C214.73 165.97 206.05 167.92 196.63 167.92C179.88 167.92 165.58 161.85 153.73 149.71C141.88 137.57 135.95 122.8 135.95 105.4C135.95 88.3703 141.93 73.7903 153.89 61.6903C165.85 49.5903 180.24 43.5303 197.06 43.5303C206.77 43.5303 215.56 45.6003 223.43 49.7303C231.29 53.8603 238.2 60.0603 244.15 68.3303V46.5803H259.16V46.5603ZM198.32 58.2003C189.85 58.2003 182.03 60.2803 174.86 64.4503C167.69 68.6203 161.99 74.4603 157.75 81.9903C153.51 89.5203 151.4 97.4903 151.4 105.88C151.4 114.21 153.53 122.17 157.8 129.78C162.07 137.38 167.81 143.3 175.01 147.54C182.22 151.78 189.95 153.89 198.2 153.89C206.53 153.89 214.42 151.79 221.88 147.59C229.34 143.39 235.08 137.71 239.09 130.54C243.11 123.37 245.12 115.3 245.12 106.32C245.12 92.6303 240.61 81.1903 231.6 72.0003C222.6 62.8003 211.5 58.2003 198.32 58.2003Z" fill="white"/>
<path d="M293.04 2.62988H308.27V46.5599H332.41V59.7199H308.27V164.87H293.04V59.7199H272.27V46.5599H293.04V2.62988Z" fill="white"/>
<path d="M459.48 46.5603V164.87H444.47V144.54C438.09 152.3 430.93 158.13 422.99 162.05C415.05 165.97 406.37 167.92 396.95 167.92C380.2 167.92 365.9 161.85 354.05 149.71C342.2 137.57 336.27 122.8 336.27 105.4C336.27 88.3703 342.25 73.7903 354.21 61.6903C366.17 49.5903 380.56 43.5303 397.38 43.5303C407.09 43.5303 415.88 45.6003 423.75 49.7303C431.61 53.8603 438.52 60.0603 444.47 68.3303V46.5803H459.48V46.5603ZM398.64 58.2003C390.17 58.2003 382.35 60.2803 375.18 64.4503C368.01 68.6203 362.31 74.4603 358.07 81.9903C353.83 89.5203 351.72 97.4903 351.72 105.88C351.72 114.21 353.85 122.17 358.12 129.78C362.39 137.38 368.13 143.3 375.33 147.54C382.54 151.78 390.27 153.89 398.52 153.89C406.85 153.89 414.74 151.79 422.2 147.59C429.66 143.39 435.4 137.71 439.41 130.54C443.43 123.37 445.44 115.3 445.44 106.32C445.44 92.6303 440.93 81.1903 431.92 72.0003C422.91 62.8003 411.82 58.2003 398.64 58.2003Z" fill="white"/>
<path d="M583.32 125.62L596.15 132.36C591.94 140.62 587.08 147.29 581.56 152.37C576.05 157.45 569.84 161.31 562.95 163.95C556.05 166.59 548.25 167.92 539.55 167.92C520.25 167.92 505.16 161.6 494.27 148.94C483.39 136.29 477.94 121.99 477.94 106.04C477.94 91.0302 482.55 77.6602 491.76 65.9102C503.44 50.9802 519.08 43.5103 538.67 43.5103C558.84 43.5103 574.95 51.1603 586.99 66.4503C595.55 77.2503 599.9 90.7403 600.05 106.9H493.61C493.9 120.64 498.29 131.91 506.78 140.7C515.27 149.49 525.76 153.88 538.25 153.88C544.27 153.88 550.13 152.83 555.83 150.74C561.52 148.65 566.37 145.86 570.36 142.4C574.35 138.94 578.67 133.35 583.32 125.62ZM583.32 93.7603C581.29 85.6403 578.33 79.1503 574.45 74.2903C570.57 69.4303 565.43 65.5202 559.05 62.5502C552.66 59.5802 545.95 58.0902 538.91 58.0902C527.3 58.0902 517.31 61.8203 508.97 69.2903C502.87 74.7303 498.26 82.8803 495.14 93.7603H583.32Z" fill="white"/>
<path d="M733.25 71.14L721.18 78.64C710.75 64.79 696.53 57.87 678.49 57.87C664.08 57.87 652.12 62.5 642.59 71.77C633.07 81.04 628.31 92.3 628.31 105.55C628.31 114.17 630.5 122.28 634.88 129.88C639.26 137.48 645.27 143.39 652.91 147.58C660.55 151.78 669.11 153.88 678.6 153.88C695.98 153.88 710.17 146.96 721.18 133.11L733.25 141.05C727.59 149.57 720 156.17 710.47 160.87C700.94 165.56 690.08 167.91 677.9 167.91C659.2 167.91 643.68 161.97 631.36 150.08C619.03 138.19 612.87 123.73 612.87 106.69C612.87 95.24 615.75 84.6 621.51 74.78C627.28 64.96 635.19 57.29 645.27 51.78C655.35 46.27 666.62 43.52 679.09 43.52C686.92 43.52 694.47 44.72 701.76 47.11C709.04 49.5 715.22 52.62 720.3 56.46C725.39 60.3 729.7 65.2 733.25 71.14Z" fill="white"/>
<path d="M752.48 0.890137H767.7V67.7701C773.86 59.6501 780.64 53.5801 788.03 49.5601C795.42 45.5401 803.44 43.5201 812.06 43.5201C820.9 43.5201 828.75 45.7701 835.6 50.2601C842.45 54.7601 847.51 60.7901 850.77 68.3601C854.03 75.9401 855.66 87.8101 855.66 103.97V164.86H840.44V108.42C840.44 94.7901 839.9 85.6901 838.81 81.1301C836.92 73.3001 833.5 67.4101 828.53 63.4601C823.56 59.5101 817.06 57.5301 809.01 57.5301C799.8 57.5301 791.56 60.5801 784.27 66.6601C776.99 72.7501 772.18 80.2902 769.86 89.2802C768.41 95.0802 767.68 105.81 767.68 121.47V164.86H752.46V0.890137H752.48Z" fill="white"/>
<path d="M934.281 43.52C952.511 43.52 967.61 50.12 979.6 63.31C990.49 75.34 995.94 89.59 995.94 106.04C995.94 122.57 990.19 137.01 978.68 149.37C967.17 161.73 952.37 167.91 934.29 167.91C916.14 167.91 901.3 161.73 889.79 149.37C878.28 137.01 872.521 122.57 872.521 106.04C872.521 89.66 877.97 75.45 888.86 63.41C900.84 50.15 915.981 43.52 934.281 43.52ZM934.22 58.42C921.56 58.42 910.691 63.1 901.591 72.45C892.491 81.8 887.951 93.11 887.951 106.38C887.951 114.94 890.02 122.91 894.17 130.3C898.32 137.69 903.92 143.4 910.97 147.43C918.03 151.45 925.781 153.47 934.211 153.47C942.651 153.47 950.391 151.46 957.451 147.43C964.51 143.41 970.11 137.7 974.25 130.3C978.4 122.91 980.47 114.93 980.47 106.38C980.47 93.11 975.911 81.8 966.771 72.45C957.671 63.09 946.81 58.42 934.22 58.42Z" fill="white"/>
</svg>
