<svg width="1002" height="201" viewBox="0 0 1002 201" fill="none" xmlns="http://www.w3.org/2000/svg">
<path opacity="0.5" d="M904.27 4.91992C850.3 4.91992 806.54 48.6799 806.54 102.62C806.54 156.59 850.3 200.35 904.27 200.35C958.21 200.35 1001.97 156.59 1001.97 102.62C1001.96 48.6799 958.2 4.91992 904.27 4.91992ZM904.27 160.7C872.18 160.7 846.18 134.71 846.18 102.61C846.18 70.5499 872.17 44.5299 904.27 44.5299C936.33 44.5299 962.35 70.5599 962.35 102.61C962.35 134.71 936.33 160.7 904.27 160.7Z" fill="#A6A8AB"/>
<path d="M904.27 21.98C859.7 21.98 823.6 58.09 823.6 102.62C823.6 147.19 859.71 183.29 904.27 183.29C948.8 183.29 984.91 147.19 984.91 102.62C984.9 58.09 948.8 21.98 904.27 21.98ZM904.27 160.7C872.18 160.7 846.18 134.71 846.18 102.61C846.18 70.55 872.17 44.53 904.27 44.53C936.33 44.53 962.35 70.56 962.35 102.61C962.35 134.71 936.33 160.7 904.27 160.7Z" fill="#929497"/>
<path d="M904.27 31.8198C865.13 31.8198 833.44 63.5098 833.44 102.61C833.44 141.72 865.13 173.44 904.27 173.44C943.38 173.44 975.06 141.72 975.06 102.61C975.06 63.5098 943.37 31.8198 904.27 31.8198ZM904.27 160.7C872.18 160.7 846.18 134.71 846.18 102.61C846.18 70.5498 872.17 44.5298 904.27 44.5298C936.33 44.5298 962.35 70.5598 962.35 102.61C962.35 134.71 936.33 160.7 904.27 160.7Z" fill="#58595B"/>
<path d="M119.39 0.580048V159.43H104.85V139.73C98.67 147.25 91.74 152.9 84.05 156.69C76.36 160.48 67.95 162.38 58.82 162.38C42.6 162.38 28.75 156.5 17.26 144.73C5.78004 132.97 0.0400391 118.66 0.0400391 101.8C0.0400391 85.3 5.83004 71.1801 17.42 59.4501C29.01 47.7201 42.95 41.86 59.24 41.86C68.65 41.86 77.17 43.86 84.79 47.86C92.41 51.86 99.1 57.8701 104.85 65.8701V0.560059H119.39V0.580048ZM60.45 56.1C52.24 56.1 44.67 58.1201 37.72 62.1501C30.77 66.1801 25.25 71.8501 21.15 79.1401C17.05 86.4301 15 94.15 15 102.29C15 110.36 17.07 118.08 21.21 125.44C25.35 132.8 30.91 138.54 37.89 142.64C44.87 146.74 52.36 148.79 60.35 148.79C68.42 148.79 76.06 146.76 83.29 142.69C90.51 138.62 96.07 133.12 99.97 126.17C103.86 119.22 105.81 111.4 105.81 102.71C105.81 89.4501 101.45 78.3701 92.71 69.4601C83.97 60.5501 73.22 56.1 60.45 56.1Z" fill="#231F20"/>
<path d="M250.26 44.8301V159.44H235.72V139.74C229.54 147.26 222.61 152.91 214.92 156.7C207.23 160.49 198.82 162.39 189.69 162.39C173.47 162.39 159.61 156.51 148.13 144.74C136.65 132.98 130.91 118.67 130.91 101.81C130.91 85.3101 136.7 71.1901 148.29 59.4601C159.88 47.7301 173.82 41.8701 190.11 41.8701C199.52 41.8701 208.03 43.8701 215.65 47.8701C223.27 51.8701 229.96 57.8801 235.72 65.8801V44.8101H250.26V44.8301ZM191.32 56.1001C183.11 56.1001 175.54 58.1201 168.59 62.1501C161.64 66.1801 156.12 71.8501 152.02 79.1401C147.92 86.4301 145.87 94.1501 145.87 102.29C145.87 110.36 147.94 118.08 152.07 125.44C156.2 132.8 161.77 138.54 168.75 142.64C175.73 146.74 183.22 148.79 191.22 148.79C199.29 148.79 206.93 146.76 214.16 142.69C221.38 138.62 226.95 133.12 230.84 126.17C234.73 119.22 236.68 111.4 236.68 102.71C236.68 89.4501 232.31 78.3701 223.58 69.4601C214.83 60.5501 204.08 56.1001 191.32 56.1001Z" fill="#231F20"/>
<path d="M283.08 2.27002H297.83V44.83H321.21V57.58H297.83V159.44H283.08V57.57H262.96V44.82H283.08V2.27002Z" fill="#231F20"/>
<path d="M444.31 44.8301V159.44H429.77V139.74C423.59 147.26 416.66 152.91 408.97 156.7C401.28 160.49 392.87 162.39 383.74 162.39C367.52 162.39 353.66 156.51 342.18 144.74C330.7 132.98 324.96 118.67 324.96 101.81C324.96 85.3101 330.75 71.1901 342.34 59.4601C353.93 47.7301 367.87 41.8701 384.16 41.8701C393.57 41.8701 402.08 43.8701 409.7 47.8701C417.32 51.8701 424.01 57.8801 429.77 65.8801V44.8101H444.31V44.8301ZM385.37 56.1001C377.16 56.1001 369.59 58.1201 362.64 62.1501C355.69 66.1801 350.17 71.8501 346.07 79.1401C341.97 86.4301 339.92 94.1501 339.92 102.29C339.92 110.36 341.99 118.08 346.12 125.44C350.26 132.8 355.82 138.54 362.8 142.64C369.78 146.74 377.27 148.79 385.27 148.79C393.34 148.79 400.98 146.76 408.21 142.69C415.43 138.62 421 133.12 424.89 126.17C428.78 119.22 430.73 111.4 430.73 102.71C430.73 89.4501 426.36 78.3701 417.63 69.4601C408.89 60.5501 398.14 56.1001 385.37 56.1001Z" fill="#231F20"/>
<path d="M564.27 121.41L576.7 127.94C572.62 135.95 567.91 142.41 562.57 147.32C557.23 152.24 551.22 155.98 544.54 158.54C537.86 161.1 530.3 162.38 521.87 162.38C503.17 162.38 488.55 156.25 478.01 144C467.47 131.75 462.19 117.89 462.19 102.44C462.19 87.9001 466.65 74.9501 475.58 63.5701C486.9 49.1001 502.04 41.8701 521.02 41.8701C540.56 41.8701 556.16 49.2801 567.83 64.1001C576.12 74.5701 580.34 87.6301 580.48 103.29H477.37C477.65 116.6 481.9 127.52 490.13 136.03C498.36 144.54 508.52 148.8 520.61 148.8C526.44 148.8 532.12 147.79 537.64 145.76C543.16 143.73 547.85 141.04 551.72 137.68C555.59 134.32 559.78 128.9 564.27 121.41ZM564.27 90.5401C562.3 82.6801 559.44 76.3901 555.67 71.6801C551.91 66.9801 546.94 63.1801 540.75 60.3001C534.56 57.4201 528.06 55.9801 521.24 55.9801C509.99 55.9801 500.32 59.6001 492.24 66.8301C486.33 72.1001 481.87 80.0002 478.85 90.5302H564.27V90.5401Z" fill="#231F20"/>
<path d="M709.52 68.6299L697.83 75.8999C687.73 62.4899 673.95 55.7799 656.48 55.7799C642.52 55.7799 630.93 60.2699 621.71 69.2499C612.49 78.2299 607.87 89.1398 607.87 101.97C607.87 110.32 609.99 118.18 614.24 125.54C618.48 132.91 624.3 138.62 631.71 142.69C639.11 146.76 647.4 148.79 656.59 148.79C673.42 148.79 687.17 142.08 697.83 128.67L709.52 136.36C704.04 144.61 696.68 151.01 687.45 155.56C678.22 160.11 667.7 162.38 655.9 162.38C637.78 162.38 622.75 156.62 610.82 145.1C598.88 133.58 592.91 119.57 592.91 103.07C592.91 91.9799 595.7 81.6699 601.28 72.1499C606.87 62.6299 614.53 55.2099 624.3 49.8699C634.06 44.5299 644.98 41.8599 657.06 41.8599C664.64 41.8599 671.96 43.0199 679.02 45.3399C686.08 47.6599 692.06 50.6799 696.98 54.3999C701.9 58.1399 706.08 62.8799 709.52 68.6299Z" fill="#231F20"/>
<path d="M728.15 0.580078H742.9V65.3601C748.87 57.5001 755.44 51.6101 762.6 47.7101C769.76 43.8101 777.52 41.8601 785.88 41.8601C794.45 41.8601 802.05 44.0401 808.69 48.3901C815.33 52.7401 820.23 58.5901 823.39 65.9301C826.55 73.2701 828.13 84.7701 828.13 100.43V159.42H813.38V104.75C813.38 91.5501 812.85 82.7301 811.8 78.3101C809.97 70.7201 806.66 65.0201 801.84 61.1901C797.03 57.3601 790.73 55.4501 782.93 55.4501C774.01 55.4501 766.02 58.4001 758.96 64.3001C751.9 70.2001 747.25 77.5001 745 86.2101C743.59 91.8301 742.89 102.22 742.89 117.39V159.42H728.14V0.580078H728.15Z" fill="#231F20"/>
<path d="M904.26 41.8799C921.92 41.8799 936.55 48.2699 948.16 61.0499C958.71 72.7099 963.99 86.5099 963.99 102.45C963.99 118.46 958.42 132.45 947.27 144.43C936.12 156.4 921.78 162.39 904.27 162.39C886.68 162.39 872.31 156.4 861.16 144.43C850.01 132.46 844.43 118.46 844.43 102.45C844.43 86.5799 849.71 72.8099 860.26 61.1599C871.87 48.2999 886.54 41.8799 904.26 41.8799ZM904.21 56.3099C891.95 56.3099 881.41 60.8399 872.6 69.8999C863.79 78.9599 859.38 89.9199 859.38 102.77C859.38 111.06 861.39 118.78 865.41 125.95C869.43 133.11 874.85 138.64 881.69 142.54C888.53 146.44 896.03 148.39 904.21 148.39C912.38 148.39 919.89 146.44 926.72 142.54C933.55 138.64 938.98 133.11 943 125.95C947.02 118.79 949.03 111.06 949.03 102.77C949.03 89.9199 944.61 78.9599 935.76 69.8999C926.92 60.8399 916.4 56.3099 904.21 56.3099Z" fill="#231F20"/>
</svg>
