<svg width="926" height="570" viewBox="0 0 926 570" fill="none" xmlns="http://www.w3.org/2000/svg">
<rect width="925.5" height="570" fill="white"/>
<path d="M301.765 406H64.235C58.6051 405.994 53.2075 403.76 49.2266 399.789C45.2456 395.817 43.0064 390.433 43 384.817V41.1833C43.0064 35.5671 45.2456 30.1827 49.2266 26.2114C53.2075 22.2402 58.6051 20.0063 64.235 20H301.765C307.395 20.0063 312.792 22.2402 316.773 26.2114C320.754 30.1827 322.994 35.5671 323 41.1833V384.817C322.994 390.433 320.754 395.817 316.773 399.789C312.792 403.76 307.395 405.994 301.765 406V406Z" fill="#E4E4E4"/>
<path d="M302.44 393H63.56C61.8208 392.998 60.1534 392.307 58.9236 391.08C57.6938 389.852 57.002 388.188 57 386.451V39.5487C57.002 37.8125 57.6938 36.148 58.9236 34.9203C60.1534 33.6926 61.8208 33.002 63.56 33H302.44C304.179 33.002 305.847 33.6926 307.076 34.9203C308.306 36.148 308.998 37.8125 309 39.5487V386.451C308.998 388.188 308.306 389.852 307.076 391.08C305.847 392.307 304.179 392.998 302.44 393V393Z" fill="white"/>
<path d="M182 28C183.105 28 184 27.1046 184 26C184 24.8954 183.105 24 182 24C180.895 24 180 24.8954 180 26C180 27.1046 180.895 28 182 28Z" fill="white"/>
<path d="M287 216H129V222H287V216Z" fill="#E4E4E4"/>
<path d="M287 235H129V241H287V235Z" fill="#E4E4E4"/>
<path d="M287 253H129V259H287V253Z" fill="#E4E4E4"/>
<path d="M102 147H67V183H102V147Z" fill="#E4E4E4"/>
<path d="M287 294H129V300H287V294Z" fill="#E4E4E4"/>
<path d="M287 313H129V318H287V313Z" fill="#E4E4E4"/>
<path d="M287 331H129V337H287V331Z" fill="#E4E4E4"/>
<path d="M102 225H67V260H102V225Z" fill="#E4E4E4"/>
<path d="M210.054 82.508L148.335 106.345L171.379 165.844L233.098 142.007L210.054 82.508Z" fill="#0082B6"/>
<path d="M156.029 164L131 99.0112L197.971 73L223 137.989L156.029 164ZM133.544 100.141L157.154 161.445L220.456 136.859L196.846 75.5552L133.544 100.141Z" fill="#3F3D56"/>
<path d="M586.807 503L575.967 501.874L575 458L591 459.663L586.807 503Z" fill="#9E616A"/>
<path d="M588.528 515L552 511.336L552.046 510.873C552.424 507.1 554.285 503.631 557.218 501.23C560.152 498.83 563.918 497.693 567.689 498.071L567.69 498.071L590 500.31L588.528 515Z" fill="#2F2E41"/>
<path d="M638.501 512C617.272 512 600.002 478.13 600.002 436.5C599.946 424.767 601.397 413.075 604.318 401.712C604.717 400.19 605.15 398.684 605.605 397.228C612.644 374.544 624.942 361 638.501 361C659.729 361 677 394.869 677 436.5C677 478.13 659.729 512 638.501 512ZM638.501 362.843C625.981 362.843 614.05 376.229 607.364 397.777C606.917 399.206 606.492 400.686 606.101 402.175C603.22 413.386 601.789 424.92 601.844 436.495C601.844 477.114 618.288 510.157 638.501 510.157C658.713 510.157 675.158 477.114 675.158 436.5C675.158 395.885 658.713 362.843 638.501 362.843Z" fill="#3F3D56"/>
<path d="M589.829 516L547 511.292L547.171 510L590 514.708L589.829 516Z" fill="#3F3D56"/>
<path d="M647.5 481C639.234 481 633 461.869 633 436.5C633 411.131 639.234 392 647.5 392C655.766 392 662 411.131 662 436.5C662 461.869 655.766 481 647.5 481ZM647.5 393.833C641.435 393.833 634.888 410.146 634.888 436.5C634.888 462.854 641.435 479.167 647.5 479.167C653.565 479.167 660.112 462.854 660.112 436.5C660.112 410.146 653.565 393.833 647.5 393.833Z" fill="#3F3D56"/>
<path d="M649 449C651.761 449 654 444.523 654 439C654 433.477 651.761 429 649 429C646.239 429 644 433.477 644 439C644 444.523 646.239 449 649 449Z" fill="#2F2E41"/>
<path d="M727.001 513C704.945 513 687.001 478.458 687.001 436C686.949 424.271 688.391 412.584 691.295 401.218C691.732 399.554 692.195 397.944 692.671 396.425C699.96 372.991 712.794 359 727.001 359C749.056 359 767 393.542 767 436C767 478.458 749.056 513 727.001 513ZM727.001 360.85C713.85 360.85 701.375 374.692 694.443 396.974C693.975 398.468 693.521 400.051 693.092 401.681C690.228 412.894 688.805 424.425 688.858 435.995C688.858 477.438 705.969 511.15 727.001 511.15C748.033 511.15 765.144 477.438 765.144 436C765.144 394.562 748.033 360.85 727.001 360.85Z" fill="#3F3D56"/>
<path d="M736 481C728.019 481 722 461.654 722 436C722 410.346 728.019 391 736 391C743.981 391 750 410.346 750 436C750 461.654 743.981 481 736 481ZM736 392.854C730.144 392.854 723.823 409.35 723.823 436C723.823 462.65 730.144 479.146 736 479.146C741.856 479.146 748.177 462.65 748.177 436C748.177 409.35 741.856 392.854 736 392.854Z" fill="#3F3D56"/>
<path d="M737.5 446C740.538 446 743 441.523 743 436C743 430.477 740.538 426 737.5 426C734.462 426 732 430.477 732 436C732 441.523 734.462 446 737.5 446Z" fill="#2F2E41"/>
<path d="M816.076 513H463.924C463.679 513 463.444 512.895 463.271 512.707C463.097 512.52 463 512.265 463 512C463 511.735 463.097 511.48 463.271 511.293C463.444 511.105 463.679 511 463.924 511H816.076C816.321 511 816.556 511.105 816.729 511.293C816.903 511.48 817 511.735 817 512C817 512.265 816.903 512.52 816.729 512.707C816.556 512.895 816.321 513 816.076 513Z" fill="#CACACA"/>
<path d="M592.619 161.02C592.132 162.283 591.928 163.638 592.022 164.988C592.116 166.338 592.505 167.651 593.162 168.835C593.819 170.019 594.728 171.044 595.824 171.839C596.92 172.634 598.178 173.179 599.508 173.436L604.203 206L617 194.649L610.58 165.466C610.864 163.205 610.307 160.919 609.017 159.04C607.726 157.162 605.79 155.821 603.576 155.273C601.362 154.725 599.024 155.008 597.004 156.067C594.985 157.126 593.424 158.888 592.619 161.02Z" fill="#9E616A"/>
<path d="M638 287.294L720 287V318.748L638 322V287.294Z" fill="#3F3D56"/>
<path d="M618.921 512L608 510.369L608.881 466L625 468.408L618.921 512Z" fill="#9E616A"/>
<path d="M619.917 523L584 517.743L584.066 517.282C584.601 513.521 586.587 510.13 589.587 507.854C592.586 505.578 596.355 504.604 600.062 505.147L600.063 505.147L622 508.358L619.917 523Z" fill="#2F2E41"/>
<path d="M567.212 399L566 398.934L569.677 333H645V334.199H570.828L567.212 399Z" fill="#3F3D56"/>
<path d="M575.324 515.281L575.124 516.468L625.782 525L625.982 523.813L575.324 515.281Z" fill="#3F3D56"/>
<path d="M695 396.967C694.546 398.434 694.119 399.931 693.718 401.459L692.454 401.599L653.117 406L563 396.87L656.746 392L693.815 396.815L695 396.967Z" fill="#3F3D56"/>
<path d="M673.962 173.869C673.962 173.869 660.887 169.703 652.481 186.367C644.075 203.031 631 221.362 631 221.362L638.472 223.028C638.472 223.028 640.34 211.363 645.009 209.697L643.142 224.695C643.142 224.695 699.179 242.192 724.396 223.028L723.462 217.196C723.462 217.196 727.198 218.029 727.198 223.028L730 220.529C730 220.529 727.198 215.529 718.792 208.864C713.275 204.489 711.379 196.165 710.728 190.961C710.197 186.526 708.235 182.384 705.137 179.164C699.551 173.388 689.373 167.25 673.962 173.869Z" fill="#2F2E41"/>
<path d="M626.43 355.727L624.616 362.195C624.616 362.195 588.057 353.322 583.294 376.264C578.532 399.206 572 470.21 572 470.21L590.461 474L607.992 396.596L679 381.097L674.351 341L626.43 355.727Z" fill="#2F2E41"/>
<path d="M657.287 365.741C657.287 365.741 607.851 355.464 604.234 380.25C600.617 405.036 606.043 452.191 606.646 453.4C607.248 454.609 604.234 476.977 604.234 476.977L625.938 480C625.938 480 639.803 414.105 633.775 397.177L674.565 394.647C688.645 393.774 700.148 382.62 700.958 368.497C701.268 363.091 699.918 358.184 695.268 355.464C680.799 347 654.272 347 654.272 347L657.287 365.741Z" fill="#2F2E41"/>
<path d="M681 234C693.15 234 703 224.374 703 212.5C703 200.626 693.15 191 681 191C668.85 191 659 200.626 659 212.5C659 224.374 668.85 234 681 234Z" fill="#A0616A"/>
<path d="M660.209 247.332L646.361 245.612L636.179 269.532C636.179 269.532 621.976 357.362 625.588 358.56C627.615 359.272 629.764 359.578 631.91 359.459L700.264 363C700.264 363 703.313 349.316 702.109 339.13C700.905 328.943 715 273.175 715 273.175L712.29 247.709L700.757 247.498L692.454 241.072L669.348 241L660.209 247.332Z" fill="#E4E4E4"/>
<path d="M647 250.176L646.403 246.573L629.666 226.152L612.485 169L596 186.485L613.529 242.368L637.437 273L647 250.176Z" fill="#E4E4E4"/>
<path d="M652.928 215C652.928 215 660.356 204.667 666.855 202.788C673.354 200.909 674.282 191.515 674.282 191.515C674.282 191.515 690.994 210.303 701.207 211.242C711.42 212.182 702.136 188.697 702.136 188.697L683.567 184L665.927 185.879L652 195.273L652.928 215Z" fill="#2F2E41"/>
<path d="M721.813 361.738L721.238 337.196H665.955L664.188 403L663 402.968L664.798 336H722.387L722.406 336.578L723 361.697L721.813 361.738Z" fill="#3F3D56"/>
<path d="M721.178 328H720V282L739 287.647L738.671 288.804L721.178 283.605V328Z" fill="#3F3D56"/>
<path d="M729 281L742 285.632L739.524 292L729 287.947V281Z" fill="#3F3D56"/>
<path d="M679 333V342H715V333.598L679 333Z" fill="#3F3D56"/>
<path d="M587 330V340H623V330.664L587 330Z" fill="#3F3D56"/>
<path d="M653 306.595H652.702V298.617C652.702 297.393 652.205 296.218 651.321 295.352C650.436 294.486 649.236 294 647.985 294H630.717C629.466 294 628.266 294.486 627.382 295.352C626.497 296.218 626 297.393 626 298.617V298.617V342.383C626 343.607 626.497 344.782 627.382 345.648C628.266 346.514 629.466 347 630.717 347H647.985C649.236 347 650.436 346.514 651.321 345.648C652.205 344.782 652.702 343.607 652.702 342.383V312.273H653L653 306.595Z" fill="#3F3D56"/>
<path d="M640 311C641.657 311 643 309.657 643 308C643 306.343 641.657 305 640 305C638.343 305 637 306.343 637 308C637 309.657 638.343 311 640 311Z" fill="#D0CDE1"/>
<path opacity="0.15" d="M708 277L706.149 311.545L679 317L703.681 307.302L708 277Z" fill="black"/>
<path d="M599 156V83H812V136.984H617.987L599 156Z" fill="white"/>
<path d="M599 156V83H812V136.984H617.987L599 156ZM600.852 84.855V151.522L617.22 135.129H810.148V84.855L600.852 84.855Z" fill="#3F3D56"/>
<path d="M766 99H647V108H766V99Z" fill="#0082B6"/>
<path d="M766 113H647V123H766V113Z" fill="#0082B6"/>
<path d="M644.931 337.884C646.121 338.529 647.438 338.904 648.788 338.984C650.139 339.064 651.49 338.846 652.748 338.346C654.005 337.846 655.138 337.075 656.066 336.089C656.994 335.103 657.695 333.925 658.119 332.639L691 332.15L681.382 318L651.632 320.633C649.427 320.062 647.09 320.321 645.062 321.361C643.035 322.401 641.459 324.15 640.633 326.277C639.807 328.403 639.789 330.759 640.581 332.899C641.373 335.038 642.921 336.812 644.931 337.884Z" fill="#9E616A"/>
<path d="M706.22 251.848L711.615 247.636C711.615 247.636 720.607 242.823 722.405 259.669C724.203 276.516 737.391 332.469 724.203 333.07C711.016 333.672 661.837 335 661.837 335L660 318.407L708.618 313.818L706.22 251.848Z" fill="#E4E4E4"/>
</svg>
