<svg width="926" height="570" viewBox="0 0 926 570" fill="none" xmlns="http://www.w3.org/2000/svg">
<g clip-path="url(#clip0_216:2)">
<rect width="925.492" height="570" fill="#F1F1F1"/>
<path d="M772.491 540H738.491V570H772.491V540Z" fill="#F0F0F0"/>
<path d="M925.491 252C925.506 297.237 913.342 341.643 890.276 380.557C867.21 419.472 834.093 451.458 794.402 473.16C792.152 474.39 789.871 475.59 787.581 476.75C779.088 481.08 770.35 484.913 761.411 488.23C757.851 489.57 754.255 490.817 750.621 491.97C750.272 492.09 749.911 492.21 749.561 492.31C713.978 503.607 676.325 506.841 639.336 501.777C602.347 496.712 566.949 483.477 535.712 463.03C531.522 460.29 527.418 457.43 523.402 454.45C521.132 452.76 518.891 451.04 516.681 449.27C510.431 444.31 504.431 439.053 498.681 433.5C474.236 410.019 454.795 381.834 441.529 350.642C428.264 319.45 421.447 285.896 421.491 252C421.491 112.82 534.311 0 673.491 0C812.672 0 925.491 112.82 925.491 252Z" fill="white"/>
<path d="M733.671 369.6L727.991 391.08L749.561 492.31C691.58 510.573 628.963 507.353 573.161 483.24L590.001 412.63L590.561 374.33L592.391 248.04L592.851 247.8C592.879 247.782 592.91 247.769 592.941 247.76L635.841 225.73L709.861 223.88L765.091 250.78L764.671 252.35L733.671 369.6Z" fill="#004966"/>
<path d="M763.936 554.144C762.236 552.12 761 549.749 760.316 547.196C759.632 544.643 759.516 541.972 759.976 539.369C760.436 536.767 761.462 534.297 762.979 532.134C764.497 529.97 766.471 528.166 768.762 526.848L756.747 463.741L787.561 476.583L794.246 534.541C796.205 538.536 796.631 543.111 795.443 547.399C794.254 551.686 791.534 555.389 787.798 557.806C784.062 560.222 779.569 561.184 775.171 560.509C770.773 559.834 766.775 557.569 763.936 554.144V554.144Z" fill="#9E616A"/>
<path d="M753.958 252.744L761.865 250.171C761.865 250.171 786.945 266.267 784.559 305.183C784.559 305.183 785.499 325.321 784.601 338.723C783.572 354.095 797.371 506.851 797.371 506.851H752.678L733.524 368.518L753.958 252.744Z" fill="#004966"/>
<path d="M728.035 154.83C728.035 164.978 725.026 174.899 719.388 183.337C713.75 191.775 705.736 198.351 696.36 202.235C686.984 206.119 676.667 207.135 666.714 205.155C656.761 203.175 647.618 198.288 640.442 191.112C633.266 183.936 628.379 174.793 626.399 164.84C624.419 154.887 625.435 144.57 629.319 135.194C633.203 125.818 639.779 117.804 648.217 112.166C656.655 106.528 666.576 103.519 676.724 103.519H676.724C683.446 103.502 690.105 104.809 696.321 107.366C702.537 109.923 708.189 113.679 712.954 118.42C717.718 123.16 721.502 128.793 724.09 134.997C726.678 141.2 728.018 147.853 728.035 154.574C728.035 154.659 728.035 154.745 728.035 154.83Z" fill="#9E616A"/>
<path d="M625.584 85.9098C631.595 72.9845 643.227 75.54 653.4 79.9213C666.282 77.0637 678.535 68.5086 692.415 73.5681C706.088 93.4542 751.993 87.6034 742.227 119.978C742.214 127.736 756.824 123.22 754.274 135.926C762.013 160.377 726.337 206.684 705.856 196.933C710.921 187.649 722.492 166.564 704.942 164.473C667.19 199.6 701.047 97.5823 653.612 127.251C637.906 141.624 616.404 100.287 625.584 85.9098Z" fill="#2F2E41"/>
<path d="M704.104 497.505L622.197 481.283L643.199 375.243C672.18 386.205 699.482 391.612 725.105 391.465C702.713 424.306 692.54 459.569 704.104 497.505Z" fill="#E4E4E4"/>
<path d="M692.194 503.733L610.288 487.511C603.564 439.472 609.676 403.303 631.29 381.472C660.271 392.433 687.573 397.841 713.196 397.694C699.659 431.426 692.536 467.388 692.194 503.733V503.733Z" fill="#0082B6"/>
<path d="M637.926 474.195C637.601 471.572 636.705 469.053 635.302 466.814C633.898 464.575 632.02 462.671 629.801 461.236C627.582 459.801 625.075 458.87 622.457 458.509C619.839 458.147 617.173 458.364 614.648 459.145L576.61 407.377L565.034 438.689L602.931 483.048C604.523 487.202 607.584 490.629 611.533 492.678C615.483 494.727 620.047 495.256 624.36 494.165C628.674 493.074 632.437 490.438 634.938 486.758C637.438 483.077 638.501 478.607 637.926 474.195Z" fill="#9E616A"/>
<path d="M603.82 250.771L596.929 246.117C596.929 246.117 555.929 249.935 547.492 288C547.492 288 541.325 310.87 538.492 324C537.035 330.753 517.606 396 517.606 396L583.492 468L601.492 441L583.492 396L603.82 250.771Z" fill="#004966"/>
<path d="M34 126.519H0V156.519H34V126.519Z" fill="#0082B6"/>
<path d="M107 246.519H73V276.519H107V246.519Z" fill="#0082B6"/>
<path d="M160 451.519H126V481.519H160V451.519Z" fill="#0082B6"/>
<path d="M126.247 57.6489C125.24 57.6489 124.273 58.0493 123.56 58.762C122.848 59.4746 122.447 60.4412 122.447 61.449C122.447 62.4569 122.848 63.4235 123.56 64.1361C124.273 64.8488 125.24 65.2491 126.247 65.2491H403.7C404.706 65.2468 405.671 64.8454 406.381 64.133C407.092 63.4206 407.491 62.4554 407.491 61.449C407.491 60.4427 407.092 59.4774 406.381 58.765C405.671 58.0526 404.706 57.6512 403.7 57.6489H126.247Z" fill="white"/>
<path d="M126.247 80.4495C125.748 80.448 125.253 80.5449 124.791 80.7347C124.329 80.9245 123.909 81.2034 123.555 81.5556C123.201 81.9078 122.92 82.3263 122.728 82.7872C122.536 83.248 122.437 83.7423 122.436 84.2416C122.435 84.7409 122.532 85.2356 122.722 85.6972C122.912 86.1589 123.192 86.5786 123.544 86.9322C123.897 87.2859 124.315 87.5666 124.776 87.7584C125.237 87.9501 125.732 88.0491 126.231 88.0497H301.639C302.647 88.0497 303.614 87.6493 304.327 86.9367C305.039 86.224 305.44 85.2574 305.44 84.2496C305.44 83.2417 305.039 82.2752 304.327 81.5625C303.614 80.8498 302.647 80.4495 301.639 80.4495H126.247Z" fill="white"/>
<path d="M90.2474 330.649C89.2395 330.649 88.273 331.049 87.5603 331.762C86.8476 332.475 86.4473 333.441 86.4473 334.449C86.4473 335.457 86.8476 336.423 87.5603 337.136C88.273 337.849 89.2395 338.249 90.2474 338.249H367.7C368.706 338.247 369.671 337.845 370.381 337.133C371.092 336.421 371.491 335.455 371.491 334.449C371.491 333.443 371.092 332.477 370.381 331.765C369.671 331.053 368.706 330.651 367.7 330.649H90.2474Z" fill="white"/>
<path d="M90.2471 353.449C89.7478 353.448 89.2531 353.545 88.7912 353.735C88.3294 353.924 87.9094 354.203 87.5555 354.556C87.2015 354.908 86.9204 355.326 86.7282 355.787C86.5361 356.248 86.4366 356.742 86.4356 357.242C86.4345 357.741 86.5319 358.236 86.7221 358.697C86.9123 359.159 87.1917 359.579 87.5442 359.932C87.8966 360.286 88.3154 360.567 88.7764 360.758C89.2375 360.95 89.7318 361.049 90.2311 361.05H265.639C266.647 361.05 267.614 360.649 268.327 359.937C269.039 359.224 269.44 358.257 269.44 357.25C269.44 356.242 269.039 355.275 268.327 354.563C267.614 353.85 266.647 353.449 265.639 353.449H90.2471Z" fill="white"/>
<path d="M248.247 525.649C247.24 525.649 246.273 526.049 245.56 526.762C244.848 527.475 244.447 528.441 244.447 529.449C244.447 530.457 244.848 531.423 245.56 532.136C246.273 532.849 247.24 533.249 248.247 533.249H525.7C526.706 533.247 527.671 532.845 528.381 532.133C529.092 531.421 529.491 530.455 529.491 529.449C529.491 528.443 529.092 527.477 528.381 526.765C527.671 526.053 526.706 525.651 525.7 525.649H248.247Z" fill="white"/>
<path d="M248.247 548.449C247.748 548.448 247.253 548.545 246.791 548.735C246.329 548.924 245.909 549.203 245.555 549.556C245.201 549.908 244.92 550.326 244.728 550.787C244.536 551.248 244.437 551.742 244.436 552.242C244.435 552.741 244.532 553.236 244.722 553.697C244.912 554.159 245.192 554.579 245.544 554.932C245.897 555.286 246.315 555.567 246.776 555.758C247.237 555.95 247.732 556.049 248.231 556.05H423.64C424.647 556.05 425.614 555.649 426.327 554.937C427.039 554.224 427.44 553.257 427.44 552.25C427.44 551.242 427.039 550.275 426.327 549.563C425.614 548.85 424.647 548.449 423.64 548.449H248.247Z" fill="white"/>
<path d="M15.9885 141.655C24.1337 139.866 31.8391 136.467 38.6515 131.657C45.4639 126.847 51.2458 120.723 55.6572 113.646C58.1617 109.623 60.1802 105.316 61.6704 100.817C61.7831 100.445 61.7466 100.043 61.5689 99.6968C61.3911 99.3506 61.0858 99.087 60.7175 98.9615C60.3491 98.8361 59.9464 98.8585 59.5943 99.0242C59.2421 99.1899 58.9681 99.4858 58.8299 99.8496C56.2728 107.369 52.2368 114.301 46.9596 120.237C41.6824 126.173 35.2707 130.993 28.1021 134.412C24.0628 136.342 19.808 137.784 15.4275 138.708C13.538 139.106 14.0949 142.054 15.9885 141.655V141.655Z" fill="#004966"/>
<path d="M45.2179 106.562C50.6257 103.517 56.0335 100.471 61.4413 97.4258C61.6918 97.2855 62.3932 96.7542 62.6552 96.8177C62.4452 96.7668 62.6358 96.9223 62.642 97.1123C62.6504 97.368 62.6826 97.6277 62.6922 97.8852C62.7509 99.4645 62.7797 101.045 62.8234 102.625L63.0748 111.71C63.1278 113.622 66.1218 113.85 66.0683 111.915L65.7731 101.25C65.7055 98.8059 66.3169 93.3846 62.3568 93.8533C60.9278 94.0224 59.6065 95.0235 58.3876 95.7099L53.45 98.4906L43.9276 103.853C42.2507 104.798 43.5338 107.511 45.2179 106.562V106.562Z" fill="#004966"/>
<path d="M90.3075 261.413C82.245 263.53 74.6867 267.236 68.0769 272.315C61.4671 277.393 55.9392 283.742 51.8179 290.988C49.4783 295.106 47.6358 299.487 46.3291 304.04C46.2388 304.418 46.2989 304.817 46.4969 305.152C46.6949 305.487 47.0152 305.732 47.3904 305.836C47.7655 305.939 48.1662 305.893 48.5079 305.707C48.8496 305.521 49.1056 305.209 49.222 304.837C51.486 297.219 55.2522 290.13 60.2985 283.99C65.3448 277.849 71.5693 272.781 78.605 269.084C82.567 267 86.7633 265.396 91.105 264.306C92.9758 263.834 92.1831 260.94 90.3075 261.413L90.3075 261.413Z" fill="#004966"/>
<path d="M62.4905 297.653L46.8136 307.318C46.5449 307.483 46.2808 307.664 46.0012 307.811C45.7236 307.958 45.4381 307.953 45.6176 308.129C45.3756 307.892 45.4373 307.01 45.4192 306.741L45.1138 302.207L44.5031 293.139C44.3741 291.223 41.3731 291.209 41.5031 293.139L42.22 303.785C42.3833 306.208 41.9317 311.225 45.6425 311.022C47.2947 310.932 48.8688 309.575 50.2228 308.74L54.7019 305.978L64.0047 300.243C65.6452 299.232 64.1401 296.636 62.4905 297.653V297.653Z" fill="#004966"/>
<path d="M141.895 465.306C149.584 467.319 156.792 470.851 163.095 475.693C169.397 480.536 174.666 486.591 178.592 493.502C180.805 497.393 182.546 501.534 183.778 505.837C183.895 506.209 184.151 506.52 184.492 506.707C184.834 506.893 185.235 506.939 185.61 506.836C185.985 506.732 186.305 506.487 186.503 506.152C186.701 505.817 186.761 505.418 186.671 505.04C184.305 497.047 180.364 489.608 175.081 483.161C169.799 476.713 163.28 471.386 155.909 467.493C151.72 465.283 147.284 463.578 142.693 462.413C140.82 461.941 140.021 464.833 141.895 465.306V465.306Z" fill="#004966"/>
<path d="M168.995 501.243L178.298 506.978L182.777 509.74C184.134 510.577 185.702 511.931 187.357 512.022C191.067 512.225 190.616 507.209 190.78 504.784L191.496 494.139C191.626 492.212 188.626 492.22 188.496 494.139L187.886 503.207L187.594 507.544C187.571 507.876 187.658 508.853 187.382 509.129C187.579 508.932 187.374 509.026 187.154 508.892C186.833 508.698 186.505 508.514 186.186 508.318L170.509 498.652C168.861 497.636 167.353 500.23 168.995 501.243V501.243Z" fill="#004966"/>
<path d="M68 85.519C75.732 85.519 82 79.251 82 71.519C82 63.7871 75.732 57.519 68 57.519C60.268 57.519 54 63.7871 54 71.519C54 79.251 60.268 85.519 68 85.519Z" fill="#0082B6"/>
<path d="M44 359.849C51.732 359.849 58 353.581 58 345.849C58 338.117 51.732 331.849 44 331.849C36.268 331.849 30 338.117 30 345.849C30 353.581 36.268 359.849 44 359.849Z" fill="#0082B6"/>
<path d="M195 554.519C202.732 554.519 209 548.251 209 540.519C209 532.787 202.732 526.519 195 526.519C187.268 526.519 181 532.787 181 540.519C181 548.251 187.268 554.519 195 554.519Z" fill="#0082B6"/>
</g>
<defs>
<clipPath id="clip0_216:2">
<rect width="925.492" height="570" fill="white"/>
</clipPath>
</defs>
</svg>
